<?xml version="1.0" encoding="UTF-8"?>
<svg id="Layer_2" data-name="Layer 2" xmlns="http://www.w3.org/2000/svg" viewBox="0 0 345.21 453.72">
  <defs>
    <style>
      .cls-1, .cls-2, .cls-3, .cls-4, .cls-5 {
        stroke-width: 0px;
      }

      .cls-2 {
        fill: #facca3;
      }

      .cls-3 {
        fill: #2659b5;
      }

      .cls-4 {
        fill: #cd3240;
      }

      .cls-5 {
        fill: #fff;
      }
    </style>
  </defs>
  <g id="katman_1" data-name="katman 1">
    <g>
      <path class="cls-1" d="m330.2,150.11c1.96-2.63,4.64-4.4,7.33-6.15,2.29-1.49,4.33-3.15,6.01-5.41,2.12-2.87,2.01-5.68.83-8.72-.34-.89-.64-1.83-1.52-2.41-4.12-2.76-8.67-2.7-13.08-1.34-5.49,1.7-9.51,5.59-12.97,10.09-4.28,5.57-7.59,11.65-9.87,18.28-.45,1.3-.97.9-1.65.43-.64-.45-1.02-1.21-1.76-1.56-7.84-3.68-16.8-.88-20.52,7.94-1.31,3.13-2.1,6.3-2.41,9.6-.26,2.77-.33,5.6.07,8.37.3,2.08.37,2.33-1.54,3.27-2.15,1.06-3.81,2.59-5.06,4.58-.88,1.39-1.29,2.99-1.92,4.49-.38.9-.88,1.62-1.65,2.29-1.41,1.22-3.03,2.21-4.13,3.79-2.8,4.01-3.21,8.49-2.79,13.16.07.77.03,1.24-.83,1.71-2.51,1.35-4.71,3.19-6.83,5.06-4.15,3.66-8.89,4.71-14.21,3.61-5.95-1.23-10.7-4.71-15.35-8.35-2.38-1.86-4.7-3.81-7.02-5.74-2.3-1.93-4.76-3.63-7.67-4.92.84-.91,1.7-1.26,2.53-1.51,5.02-1.49,9.77-3.57,14.36-6.05,5.53-2.98,10.54-6.57,14.68-11.38,3.88-4.5,7.2-9.27,9.15-14.91.78-2.27,2.32-3.61,4.49-4.65,4.26-2.04,7.73-4.93,8.98-9.84.9-3.55-.64-6.58-4.09-7.71q-2.26-.74-1.24-2.86c.08-.16.14-.34.23-.49,2.52-4.3,4.54-8.83,6.19-13.52,2.67-7.61,4.43-15.43,4.83-23.5.3-6.13-.08-12.23-1.66-18.2-.24-.9-.52-1.8.16-2.59,2.02-2.35,3.72-4.92,5.32-7.56,2.33-3.83,4.49-7.81,5.8-12.05,2.38-7.67,2.97-15.63,2.3-23.66-.1-1.21-.61-1.69-1.8-1.76-3.38-.22-6.76-.62-10.14-.75-3.27-.12-6.55-.06-9.83.26-3.42.34-6.81.73-10.17,1.48-4.44.99-8.7,2.55-13.04,3.85-1.45.43-2.49.01-3.38-.97-3.73-4.11-8.14-7.44-12.43-10.88-4.53-3.63-9.45-6.71-14.47-9.65-5.9-3.46-11.86-6.73-18.17-9.38-3.68-1.54-7.39-3.01-11.15-4.31-4.79-1.67-9.65-3.07-14.59-4.26-9.57-2.29-19.2-4.06-29.07-4.18-1.87-.02-3.77-.16-5.58-.6-4.39-1.04-8.84-.38-13.2-.23-3.63.12-7.33.47-11,.78-3.08.26-6.14.61-9.23.84-5.12.39-10.11,1.59-15.14,2.54-5.75,1.09-11.43,2.51-17.05,4.18-3.92,1.17-7.86,2.31-11.68,3.76-5.98,2.27-11.88,4.76-17.79,7.21-2.64,1.09-5.11,2.51-7.35,4.28-1.07.85-.97,1.21.32,1.65.91.32,1.83.61,2.75.87,7.86,2.28,15.55,5,22.88,8.68,5.55,2.78,10.75,6.08,15.39,10.2,1.85,1.64,3.96,3.05,5.56,4.91,2.36,2.75,4.86,5.4,6.92,8.4,1.82,2.64,3.8,5.19,5.09,8.17.71,1.64.6,1.88-1.12,2.45-2.4.79-4.9,1.23-7.31,2.03-8.89,2.97-17.38,6.85-25.35,11.71-8.85,5.41-16.99,11.81-24.23,19.31-3.57,3.71-7.18,7.39-10.36,11.45-2.76,3.52-5.38,7.15-7.86,10.89-3.06,4.62-5.63,9.46-7.63,14.62-.94,2.44-1.07,5.08-1.93,7.53-.17.49-.83.99-.39,1.47.47.52,1.14.01,1.69-.13,1.92-.52,3.81-1.14,5.74-1.61,9.43-2.29,18.84-4.68,28.5-5.85,3.65-.45,7.31-.97,10.98-1.08,6.66-.2,13.31-.15,19.92,1,5.5.95,10.9,2.17,15.89,4.79,1.69.89,1.74.98.33,2.35-6.25,6.07-11.39,13-15.92,20.42-5.16,8.46-9.13,17.45-11.66,27.05-2.11,8-2.63,16.2-3.01,24.4-.2,4.43.57,8.84.36,13.28-.08,1.75.22,1.84,1.83.97,3.21-1.74,6-4.05,8.88-6.25,4.34-3.3,8.88-6.28,13.59-9.03,5.41-3.16,10.95-6.04,16.77-8.28,7.61-2.93,15.39-5.32,23.49-6.68,6.83-1.14,13.65-2,20.57-1.87.51,0,1.11-.22,1.6.55-3.28,3.97-6.77,7.84-10.28,11.64-3.88,4.2-8.93,7.01-13.8,9.94-3.22,1.93-6.34,3.93-8.87,6.79-3.58,4.07-5.02,8.72-4.33,14.07.15,1.15.09,2.24-.73,3.25-3.81,4.69-6.83,9.88-9.41,15.32-3.72,7.85-5.5,16.26-7.04,24.8.26,0,.44.02.6,0,2.95-.47,5.38-2.19,7.97-3.46,3.16-1.55,6.03-1.29,8.88.6.45.3.94.56,1.37.88,2.54,1.83,5.29,2.33,8.24,1.25,1.06-.39,1.65.04,2.39.68,2.22,1.94,4.31,4.11,7.23,5.05.98.31,1.95.64,2.92.97.66.22.92.58.35,1.18-1.26,1.32-2.42,2.68-4.12,3.54-3.65,1.84-7.47,3.12-11.41,4.14-.27.07-.62-.03-.73.38-.13.47.22.65.51.86,1.06.75,2.25,1.15,3.54,1.3,5.5.64,10.72-.6,15.88-2.33,1.97-.66,2.07-.64,2.18,1.4.16,3.41,1.79,5.75,4.83,7.3,4.86,2.47,9.96,3.67,15.41,3.57,2.64-.05,2.77.01,2.43,2.55-.65,4.85-1.53,9.67-2.96,14.37-.26.85-.66,1.34-1.66,1.33-2.6-.05-5.2.04-7.81.3-3.44.34-6.88.66-10.11,1.93-2.77,1.08-5.44,2.41-7.29,4.88-2.76,3.67-3,10.57.39,14.74,1.26,1.56,1.16,3.01-.21,4.38-1.42,1.42-2.57,3.05-3.65,4.72-2.36,3.68-2.44,7.39.08,11.05.48.7.98,1.38,1.54,2.02.76.87.62,1.49-.36,2.03-.43.23-.82.52-1.22.79-5.01,3.31-9.72,6.99-14.03,11.17-3.14,3.04-5.72,6.58-8.35,10.03-4.88,6.41-9.12,13.26-12.92,20.36-3.41,6.36-6,13.08-7.93,20.04-.69,2.49-1.29,5.02-1.88,7.54-.42,1.76-.07,2.75,1.15,2.87,3.18.32,6.27,1.26,9.5,1.19,3.47-.07,6.94,0,10.41-.02.66,0,1.31-.05,1.98-.18,3.49-.69,6.98-1.42,10.5-1.87,4.63-.58,9.1-1.85,13.52-3.17,6.01-1.79,11.9-3.97,17.79-6.11,7.21-2.63,14.43-5.25,21.44-8.4,5.3-2.39,10.3-5.32,15.37-8.13,3.16-1.76,5.1-4.31,5.53-7.96.29-2.46.43-4.89.06-7.38-.69-4.66-1.22-9.33-2.92-13.78-1.31-3.42-3.09-6.55-5.15-9.55-1.51-2.21-1.55-2.26.83-3.55,1.05-.57,1.99-1.24,2.62-2.2,3.32-5.02,3.72-10.49,2.29-16.18-.23-.9-.36-1.64.22-2.38,1.55-2.01,3.13-3.99,4.66-6.01.43-.57.72-.39,1.17-.03,1.71,1.35,3.46,2.64,5.17,4,1.06.84,1.49,1.93.74,3.17-.92,1.53-1.38,3.15-1.52,4.94-.31,4.29.64,8.27,3.38,11.52,1.2,1.43,1.07,2.34.53,3.8-2.61,6.96-4.2,14.06-3.25,21.61.74,5.85,2.26,11.46,4.05,17.03.28.9.69,1.4,1.76,1.45,2.12.1,4.21.45,6.32.64,3.17.28,6.32.99,9.49,1.2,5.38.35,10.73,1.02,16.11,1.42,5.62.43,11.25.88,16.87.84,8.87-.06,17.74.32,26.62-.2,3.37-.2,6.75-.48,10.15-.56,4.94-.12,9.87-.72,14.79-1.19,3.19-.3,6.4-.33,9.57-.84,3.46-.56,6.93-.98,10.4-1.45,4.44-.62,8.79-1.61,13-3.15.7-.26,1.49-.7,1.55-1.4.05-.68-.89-.87-1.44-1.23-.1-.06-.22-.09-.34-.13-2.99-.94-6.05-1.69-9.16-2.01-4.15-.41-8.33-.69-12.51-.78-6.37-.14-12.74-.14-19.12-.07-9.42.12-18.86-.33-28.28.29-3.34.22-6.66-.46-10.01-.3-.29.01-.61.04-.97-.51,2.75-1.13,5.61-1.64,8.36-2.45,6.71-1.98,13.49-3.73,20.16-5.86,10.14-3.23,20.11-6.94,29.97-10.91,5.15-2.07,10.2-4.41,15.31-6.59,3.73-1.59,7.44-3.19,10.85-5.42,5.02-3.28,3.53-6.81.34-9.32-3.32-2.6-7.09-4.46-10.82-6.32-6.06-3.02-12.29-5.72-18.71-7.92-5.9-2.02-11.87-3.8-18-5.02-3.96-.8-7.95-1.4-11.98-1.8-4-.4-7.97-.52-11.98-.35-3.26.14-6.49.78-9.78.48-.89-.08-1.22-.27-1.32-1.24-.33-3.32-1.58-6.13-4.48-8.11-1.21-.83-2.43-1.6-3.72-2.26-1.08-.56-1.53-1.41-1.25-2.54.62-2.48.36-4.93-.07-7.38-.72-4.05-3.03-6.76-7.01-7.99-3.31-1.02-6.66-1.11-10.02-.29-2.46.6-4.9,1.28-7.36,1.89-.92.23-1.9.39-2.14-.92-.26-1.39-.99-2.59-1.4-3.92-3.02-9.84-6.34-19.58-9.78-29.27-.39-1.08-.13-1.73.69-2.34,1.36-1.01,2.71-2.02,4.05-3.04,4.41-3.32,8.65-6.79,12.04-11.23,6.58-8.62,10.18-18.19,9.72-29.16-.11-2.73-.12-5.45-.31-8.18-.12-1.86.16-1.97,1.99-1.54,5.45,1.28,10.67,3.55,16.4,3.67,3.7.08,7.22-.28,10.4-2.36,3.7-2.41,6.57-5.75,9.68-8.81.78-.77,1.6-1.49,2.49-2.12.81-.56,1.61-.61,2.32.01,2.64,2.33,5.77,3.01,9.2,3.18,3.97.19,7.39-.73,10.33-3.48,2.95-2.77,5.76-5.72,9.35-7.73.82-.46,1.77-1.24,2.01-2.06.77-2.67,2.88-2.63,4.95-2.82.42-.04.87,0,1.26-.12,3.89-1.11,7.9-1.69,11.67-3.31,5.14-2.2,9.95-4.81,13.26-9.46,2.85-4.01,4.2-8.47,3.55-13.49-.33-2.57-.26-5.17.67-7.72.54-1.51.65-3.13.38-4.81-.33-2-1.69-3.16-2.98-4.42-1.41-1.37-2.11-2.88-1.62-4.91.3-1.24.1-2.52-.35-3.75-1.04-2.85-3.22-4.63-5.69-6.11-2.7-1.61-2.85-2.17-1.03-4.75.11-.15.25-.27.36-.42Zm-147.97,192.03c-3.64-2.78-7.59-4.77-12.2-5.32-.95-.11-1.39-.64-1.11-1.65.1-.35.08-.72.11-1.09.65-7.13,1.88-14.16,3.72-21.09,1.46-5.48,3.59-10.68,5.85-15.86.34-.78.83-1.11,1.65-1.17,2.97-.2,5.93-.42,8.89-.69,1.09-.1,1.65.2,1.88,1.38,1.54,7.81,3.9,15.39,6.43,22.91,1.14,3.39,2.13,6.85,3.36,10.21.59,1.61.01,2.47-1.22,3.31-2.02,1.37-4.25,2.35-6.4,3.47-2.62,1.37-4.95,3.05-6.97,5.21-1.37,1.46-2.4,1.59-3.99.37Z"/>
      <g>
        <path class="cls-3" d="m102.97,250.1c-.92-.06-1.48,1.1-2.03,1.9-3.36,4.82-5.72,10.16-7.83,15.6-1.95,5.04-3.79,10.13-4.55,15.53-.08.57-.54,1.28.1,1.68.57.35,1.15-.2,1.67-.47,1.36-.68,2.66-1.48,4.04-2.1,3.12-1.38,6.13-1.44,8.77,1.12.79.76,1.6,1.5,2.62,1.94.97.42,1.94.6,2.9.06,0-.66-.45-.81-.81-1-3.14-1.6-4.64-4.38-5.37-7.63-1.31-5.78-.39-11.38,2.01-16.69,1.2-2.67,1.35-5.12,0-7.66-.44-.83-.52-2.22-1.53-2.29Z"/>
        <path class="cls-3" d="m146.34,202.13c-1.74.02-3.25.51-4.55,1.59-2.96,2.44-5.69,5.13-8.18,8.05-.37.44-.85.89-.66,1.57.47.27.84-.03,1.22-.17,2.91-1.02,5.32-2.91,7.91-4.5,2.97-1.82,6.02-3.26,9.7-3.25,5.06.01,8.06,3.17,7.21,8.15-.71,4.18-2.97,7.42-6.43,9.78-4.2,2.87-8.99,4.56-13.63,6.52-4.27,1.8-8.45,3.74-12.17,6.56-2.04,1.55-3.47,3.55-4.2,6.03-.41,1.41-.05,1.93,1.43,1.96,1.22.02,2.41-.08,3.61-.42,2.74-.78,5.13-.19,7.12,1.98,2.65,2.87,5.88,4.85,9.62,6.04.97.31,1.54.22,2.15-.62,1.54-2.1,2.68-4.3,2.95-6.96.15-1.54.03-3.04-.1-4.55-.16-1.74.55-2.96,2.11-3.66.99-.45,2.01-.88,3.07-1.14.97-.24,1.43-.8,1.65-1.71.38-1.6.79-3.18,1.19-4.78,1.53-6.12,4.42-11.38,9.39-15.46,2.17-1.78,4.44-3.39,6.64-5.11,1.17-.91,1.09-1.2-.3-1.74-1.88-.73-3.85-1.1-5.8-1.56-6.89-1.61-13.83-2.7-20.94-2.6Z"/>
        <path class="cls-3" d="m153.44,349.93c1.27.07,2.54.24,3.82.3,1.58.08,3.17.15,4.74-.12.81-.14,1.73-.25,1.94-1.35.2-1.08.49-2.14.65-3.22,1.58-10.27,2.81-20.61,5.12-30.76,1.46-6.41,3.6-12.62,7.13-18.25,1.93-3.07,1.92-3.11,5.58-3.11,9.02-.02,17.26-2.57,24.76-7.54.93-.62,1.91-1.23,2.46-2.35-.9-.44-1.58-.03-2.24.19-8.71,3.02-17.61,3.44-26.65,2.04-2.41-.37-3.12.21-3.61,2.64-1.23,6.12-3.74,11.68-7.49,16.66-2.85,3.79-6.6,6.45-10.85,8.41-1.75.8-2.45,2.1-2.8,3.92-1.25,6.57-2.12,13.2-3.4,19.77-.68,3.52-1.08,7.09-1.08,10.7,0,1.42.6,1.98,1.93,2.04Z"/>
        <path class="cls-3" d="m125.8,302.17c2.55-.87,4.81-2.3,6.91-3.94.69-.54,1.34-1.31.93-2.37-.39-1.02-1.29-.96-2.15-.92-2.24.11-3.95,1.37-5.69,2.6-2.55,1.82-4.57,4.36-7.58,5.71,2.64.36,5.12-.25,7.57-1.09Z"/>
        <path class="cls-3" d="m268.82,91.69c-.93-3.99-1.98-7.92-4.58-11.21-2.36-3-5.17-3.46-8.28-1.32-1.05.72-2.01,1.57-3.02,2.35-.75.57-1.45,1.24-2.57,1.3-.08-.99.47-1.57.91-2.2.88-1.29,2.15-2.13,3.4-3,1.61-1.11,1.64-1.24.73-2.92-2.74-5.04-6.05-9.71-9.65-14.15-6.78-8.37-13.83-16.47-22.42-23.11-5.63-4.35-11.31-8.63-17.39-12.32-9.35-5.67-19.22-10.24-29.6-13.65-9.08-2.99-18.37-5.17-27.85-6.51-4.52-.64-9.06-1.18-13.6-1.38-15.29-.69-30.52-.01-45.64,2.61-6.71,1.16-13.38,2.51-19.96,4.25-9.6,2.54-18.97,5.78-28.19,9.45-2.77,1.1-5.46,2.38-8.18,3.59-.33.15-.73.33-.73.74,0,.46.44.5.79.6,1.46.4,2.91.87,4.4,1.19,8.11,1.78,15.6,5.1,22.7,9.29,10.07,5.95,18.41,13.88,25.46,23.18,2.17,2.86,4.04,5.93,5.11,9.41.7,2.31.5,2.77-1.82,3.24-6.34,1.31-12.44,3.41-18.37,5.94-11.15,4.75-21.41,11.02-30.67,18.86-6.23,5.27-12.02,11-17.21,17.33-3.4,4.14-6.61,8.41-9.5,12.92-3.51,5.48-6.93,11.02-9.14,17.2-.19.54-.76,1.19-.2,1.66.46.39,1.17.01,1.74-.17,2.26-.72,4.49-1.54,6.77-2.19,8.2-2.33,16.5-4.15,25-5.04,12.53-1.33,25.01-1.67,37.35,1.57,3.71.98,7.44,1.95,10.81,3.83,3.14,1.75,3.12,2.07.86,4.86-5.86,7.22-11.81,14.38-16.62,22.38-4.65,7.75-8.46,15.85-10.94,24.57-1.82,6.42-2.71,12.97-3.34,19.58-.42,4.43-.54,8.87-.15,13.31.18,2.06.67,2.27,2.3.99,2.63-2.06,5.05-4.38,7.77-6.33,8.25-5.92,17.23-10.43,26.68-14.11,7.63-2.97,15.43-5.28,23.41-6.9,10.47-2.13,21.04-3.13,31.75-2.4,2.44.17,4.92.3,7.61,0-.63-1-1.46-1.26-2.18-1.65-3.27-1.75-6.6-3.38-9.66-5.51-6.19-4.3-11.91-9.08-15.96-15.56-5.61-8.99-7.36-18.43-2.43-28.23,3.11-6.18,8.46-9.37,15.46-9.59,2.17-.07,4.18.71,6.24,1.25.4.11.85.34,1.2-.05.35-.4,0-.79-.14-1.18-2.52-6.87-3.58-14-3.57-21.3.01-7.09.98-14.07,2.66-20.95,1.89-7.73,4.72-15.07,8.78-21.94,3.43-5.8,8.35-9.5,14.89-11.18,3.8-.98,7.61-.87,11.4-.29,8.08,1.23,15.09,4.58,20.33,11.08,5.95,7.39,9.35,16.03,11.91,25.04,2.51,8.83,4.39,17.83,7.34,26.53,1.01,2.97,2.47,5.84,4.98,7.95,1.5,1.27,3.17,1.74,5.08.99,2.37-.92,4.01-2.72,5.51-4.64,3.17-4.04,5.47-8.6,7.71-13.2,2.58-5.3,4.5-10.9,7.14-16.19,1.11-2.23,2.24-4.46,3.82-6.41,2.59-3.2,5.3-2.98,7.38.51,1.65,2.77,2.43,5.82,2.97,8.95.64,3.8.6,7.63.53,11.47-.04,2.05,0,4.11,0,6.16.12,0,.25,0,.37-.01.56-2.73,1.09-5.47,1.68-8.2,1.51-7.02,2.27-14.05.61-21.16Zm-113.12-44.51c-5.32.84-10.37,2.55-15.18,4.93-5.51,2.71-10.31,6.37-14.44,10.93-2.07,2.29-2.51,2.23-3.74-.69-1.54-3.65-1.71-7.55-1.93-11.37.4-6.95.91-13.78,3.69-20.23.67-1.55,1.6-2.06,3.23-1.96,4.47.27,8.57,1.75,12.5,3.7,4.92,2.44,9.58,5.3,13.61,9.07,1.11,1.03,2.14,2.17,3.09,3.35,1.26,1.57,1.09,1.97-.82,2.26Zm13.02-4.42c-.69.59-1.61.04-2.25-.6-1.63-1.64-3.22-3.31-5.04-4.75-7.53-5.93-15.84-10.42-24.99-13.23-4.47-1.37-9.07-2.28-13.79-2.47-1.15-.04-1.76.41-2.27,1.38-4.61,8.87-7.36,18.21-7.57,28.28-.12,5.97.04,11.91.69,17.84.08.77.23,1.56-.37,2.7-1.41-2.57-2.08-5.07-2.5-7.64-1.63-10.01-.92-19.88,1.91-29.61,1.51-5.17,3.79-9.99,6.31-14.71.54-1.02,1.36-1.27,2.41-1.24,3.72.12,7.4.58,11.01,1.46,5.8,1.41,11.52,3.08,16.83,5.89,7.11,3.77,13.29,8.74,18.79,14.58.08.09.2.17.23.28.17.65,1.29,1.25.6,1.84Z"/>
        <path class="cls-3" d="m258.57,73.98c.53,1,1.32,1.75,2.55,1.83,1.97.13,3.41,1.17,4.57,2.67.59.77,1.12,1.59,1.73,2.35,1.06,1.31,1.44,1.33,2.54.03,1.46-1.73,2.49-3.74,3.68-5.65,6-9.61,8.69-20.12,8.57-31.4-.01-1.27-.56-1.66-1.7-1.85-2.96-.48-5.94-.52-9.48-.54-5.07-.11-10.62.61-16.14,1.54-4.5.76-8.94,1.81-13.12,3.73-2.04.94-2.03,1.06-.66,2.81,6.17,7.9,12.71,15.54,17.45,24.48Z"/>
        <path class="cls-3" d="m255.22,150.51c-3.6-.16-6.74,1.08-9.65,3.07-1.28.88-2.3,2.62-1.94,3.42.67,1.53,2.08,1.42,3.42,1.42,1.84.07,3.63-.24,5.33-.89,2.04-.77,3.98-1.77,5.15-3.77.88-1.52.74-2.02-.74-2.91-.49-.3-1.02-.32-1.57-.35Z"/>
        <path class="cls-4" d="m333.35,377.91c-5.79-4.27-12-7.82-18.45-11.02-3.23-1.6-6.64-2.7-9.91-4.18-3.26-1.47-6.76-2.36-10.24-3.25-4.31-1.1-8.66-1.91-13.05-2.6-5.47-.85-10.94-1.72-16.5-1.56-2.41.07-3.73.99-4.54,3.22-.61,1.66-.94,3.4-1.27,5.12-.9,4.63-.91,9.31-.82,14.16-.21,7.41.5,14.92,1.63,22.38.32,2.15.69,4.33,1.49,6.39.44,1.15,1.14,1.63,2.4,1.22,1.97-.64,3.98-1.14,5.94-1.8,6.74-2.26,13.45-4.62,20.22-6.82,13.4-4.36,26.26-9.97,38.82-16.31,1.52-.77,3.01-1.61,4.35-2.67,1.29-1.03,1.3-1.28-.06-2.28Z"/>
        <path class="cls-4" d="m239.9,402.94c-.8-6.23-1.02-12.49-.83-18.76,0-3.47.03-6.94-.01-10.41-.02-1.68-.42-1.91-1.83-1.07-2.14,1.27-4.24,2.62-6.36,3.94-4.67,2.92-9.64,5.15-14.89,6.82-4.85,1.55-9.66,1.35-14.58.29-3.97-.86-4.12-1.46-5.76,3.69-1.67,5.24-1.88,10.67-1.56,16.08.29,4.85.78,9.71,2.57,14.31,1.01,2.6,1.73,3.17,4.51,2.9,4.29-.42,8.58-.91,12.84-1.53,4.08-.6,8.14-1.38,12.21-2.11,4.67-.84,9.32-1.77,13.92-2.94,2.19-.56,2.33-.88,1.74-3.06-.72-2.7-1.6-5.35-1.96-8.15Z"/>
        <path class="cls-4" d="m128.86,393.39c-2.15-1.96-4.44-3.84-7.37-4.57-4.73-1.19-8.42.9-11.76,3.91-4.74,4.28-8.37,9.49-11.98,14.67-6.01,8.61-10.76,17.95-14.98,27.54-1.91,4.34-3.66,8.76-4.38,13.51-.2,1.33.15,1.87,1.51,2.06,2.73.38,5.47.17,7.15.27,10.4.22,19.48-1.37,28.4-3.98,8.46-2.48,16.68-5.73,25.21-7.96,1.31-.34,1.69-1.2,1.69-2.44.04-10.15-.78-20.16-4.85-29.64-2.13-4.95-4.61-9.7-8.65-13.38Z"/>
        <path class="cls-3" d="m209.2,342.27c2.62-.84,5.12-1.92,7.3-3.64.53-.42,1.03-.89.9-1.69-.12-.53-.21-1.08-.37-1.6-2.05-6.55-4.12-13.1-6.18-19.65-1.26-4-2.58-7.97-3.73-12-1.05-3.68-2.18-7.33-3.52-10.92-.39-1.03-.99-1.08-1.84-.76-2.56.95-5.11,1.94-7.69,2.8-1.3.43-1.52,1.1-1.13,2.33,1.11,3.53,2.11,7.1,3.17,10.65,3.32,11.13,6.98,22.14,10.69,33.14.47,1.39,1.17,1.74,2.41,1.34Z"/>
        <path class="cls-4" d="m171.77,388.97c-1.14-2.2-1.76-2.59-4.21-2.09-5.49,1.13-11.02,1.85-16.65,1.71-1.3-.03-2.58-.62-3.87-.27-.13.52.13.81.35,1.09,3.11,4.02,5.47,8.47,7.46,13.14,2.08,4.88,3.76,9.88,4.83,15.09.7,3.39,1.38,6.79,2.16,10.17.38,1.64.75,1.73,2.33,1.11.92-.36,1.62-1.1,2.51-1.46,3.75-1.5,7.07-3.76,10.43-5.93,1.35-.87,1.96-2.21,2.13-3.85.9-8.72-.68-16.93-4.63-24.75-.76-1.51-2.07-2.51-2.82-3.95Z"/>
        <g>
          <path class="cls-2" d="m109.61,231c-3.21,3.48-5.11,7.5-5.26,12.69.21,2.27.63,4.92,1.64,7.41,2.73,6.67,7,12.33,11.66,17.74.88,1.02,1.71.94,2.68.24,2.46-1.76,4.36-4.04,5.92-6.61.57-.94.53-1.96.21-2.99-.61-1.99-1.44-3.87-2.53-5.64-1.27-2.08-2.33-4.26-3.14-6.56-1.94-5.49-.72-9.54,3.98-12.95,4.75-3.45,10.11-5.8,15.43-8.19,3.82-1.72,7.78-3.14,11.37-5.35,2.2-1.36,4.18-2.94,5.32-5.35,1.08-2.31.59-4.65-1.42-6.21-1.86-1.44-4.01-2.04-6.34-1.48-2.61.63-5.04,1.74-7.45,2.9-7.12,3.45-13.93,7.46-20.59,11.71-4.04,2.58-8.18,5.06-11.49,8.63Z"/>
          <path class="cls-2" d="m249.02,166.48c-.48.06-.96.15-1.44.24-2.56.51-5.1,1.25-7.74.98-5.1-.53-7.3-3.21-5.23-8,.6-1.4,1.17-2.81,1.79-4.19.47-1.07.19-1.57-.99-1.7-5.67-.63-11.27-.58-16.76,1.33-3.8,1.32-7.42,3.06-11.2,4.41-6.13,2.19-12.47,2.84-18.87,2.26-9.37-.86-17.86-4.43-25.97-9.04-5.25-2.98-10.04-6.63-15.04-9.99-3.06-2.05-6.52-3.16-10.2-2.72-6.1.73-10.14,4.31-12.02,10.05-3.08,9.42-1.48,18.31,4.12,26.33,5.22,7.48,12.38,12.84,20.36,17.09,12.67,6.75,26.35,8.93,40.53,8.64,2.14-.06,4.25-.19,6.38-.37,7.13-.6,14.06-2.09,20.78-4.52,10.93-3.95,20.36-10.03,27.4-19.47,2.27-3.04,4.18-6.27,5.3-9.92.43-1.41.25-1.61-1.22-1.43Zm-67.98,16.2c-6.3.21-12.5-.35-18.42-2.7-7.83-3.11-13.04-8.68-15.6-16.72-.75-2.34-2.05-2.62-3.81-.79-.63.65-1.12,1.43-1.69,2.14-.41.5-.73,1.12-1.52,1.12,0-2.94,3.1-5.93,7.3-7.1,3.45-.96,8.92-.77,9.97,2.24-1.34.45-2.61.03-3.87-.25-1.06-.23-2.09-.61-3.21-.58-.96.03-1.29.34-1.04,1.35,1.45,5.95,4.5,10.81,9.47,14.46,5.15,3.78,11.05,5.16,17.28,5.45,2.42.11,4.84.02,7.29.23-.5.99-1.35,1.11-2.14,1.14Z"/>
          <path class="cls-2" d="m236.22,234.92c4.5.99,8.9,2.42,12.95,2.66,5.29,0,9.32-1.73,12.99-4.58,3.08-2.39,5.3-5.71,8.65-7.79.64-.4.63-.98.21-1.57-.42-.59-.84-1.19-1.29-1.77-1.3-1.68-2.82-3.18-3.74-5.14-1.08-2.28-1.2-2.27-3.33-1.04-2.64,1.53-4.9,3.59-7.45,5.23-2.63,1.69-5.41,2.99-8.63,3.08-5.08.14-9.45-1.93-13.67-4.41-4.84-2.85-8.96-6.68-13.5-9.94-3.11-2.23-6.16-4.59-9.87-5.75-.99-.31-2.18-.91-2.98.3-.53.8.21,1.75,1.96,2.61,2.97,1.45,5.72,3.28,8.14,5.49,4.92,4.51,9.42,9.5,11.57,15.91,1.4,4.18,4.01,5.83,7.99,6.71Z"/>
          <path class="cls-2" d="m229.92,244.73c-.1-5.84-1.51-11.53-3.82-16.97-3.97-9.34-10.18-16.5-19.67-20.51-5.31-2.24-10.88-2.94-16.6-2.58-6.24.39-12.09,2.05-17.21,5.77-7.43,5.4-11.54,12.99-13.92,21.64-.71,2.58-.69,2.74,1.74,3.73,4.85,1.98,7.1,5.93,8.25,10.65.94,3.87.65,7.73-1.09,11.39-.44.93-.62,1.73.4,2.55,6.56,5.23,9.69,12.15,9.75,20.47.01,1.34.58,1.75,1.75,2.01,3.7.81,7.44,1.11,11.22,1.01,4.82.13,9.58-.42,14.28-1.43,5.07-1.08,9.85-2.88,13.57-6.62,8.56-8.6,11.55-19.36,11.35-31.11Z"/>
        </g>
        <path class="cls-2" d="m151.06,41.76c-4.42-3.81-9.19-7.08-14.69-9.14-3.1-1.16-6.21-2.34-9.57-2.56-.55-.04-1.06-.21-1.28.57-.57,2.03-1.28,4.02-1.76,6.07-.85,3.6-1.17,7.27-1.62,10.94-.57,4.67-.07,9.13,1.43,13.53.6,1.74.73,1.77,2.07.44,2.36-2.35,4.64-4.8,7.36-6.76,6.38-4.6,13.53-7.36,21.5-8.83-1.07-1.71-2.12-3.09-3.45-4.24Z"/>
      </g>
      <g>
        <path class="cls-5" d="m135.76,308.88c6.37,4.65,13.31,6.1,20.86,3.25,5.81-2.19,9.87-6.49,13.16-11.52,4.67-7.13,6.74-15.07,5.95-23.53-.75-7.96-4.19-14.35-12.04-17.6-1-.41-2.03-.87-2.91-1.68.77-.29,1.26.33,1.88.25.61-.08,1.19.11,1.78.26.98.26,1.72.07,2.1-1.08,1.84-5.49,1.56-10.71-1.81-15.57-.94-1.35-2.06-2.55-3.44-3.46-2.97-1.95-6.01-1.18-9.05-.13-.75.26-.76.84-.76,1.47,0,1.64.04,3.29-.01,4.93-.09,2.48-.65,4.77-2.57,6.57-.84.78-1.54,1.71-2.29,2.58-.51.59-.79,1.14-.22,1.93,2.2,3.03,2.61,6.65,2.82,10.17.26,4.48-.44,8.91-2.16,13.12-1.36,3.32-3,6.47-5.59,9.04-1.62,1.6-3.56,2.69-5.57,3.71-.57.29-1.4.56-1.17,1.41.55,2.06,1.28,4.11,3.04,5.44,2.56,1.94,5.51,3.01,8.76,3.02,2.79,0,5.58.23,8.36-.29.72-.13,1.48-.02,2.59-.02-.5.38-.62.52-.77.58-3.19,1.4-6.55,1.64-9.97,1.57-.62-.01-1.58-.34-1.84.33-.3.78.43,1.45,1.03,1.96.41.35.94.57,1.34.92.8.69,2.05.86,2.48,2.03-.49.32-.9.08-1.35-.09-2.46-.9-4.28-2.7-6.18-4.38-1.83-1.61-3.74-3-6.12-3.77-1.34-.43-1.93.06-2.39,1.13-1.12,2.62-.36,5.68,2.08,7.46Z"/>
        <path class="cls-5" d="m121.95,286.25c-1.64-.31-3.27-.3-4.89-.07-1.14.16-1.33.81-.62,1.58,1.58,1.71,3.42,3.08,5.63,3.86,5.75,2.03,10.81.45,15.2-3.34,6.03-5.22,9.74-11.81,10.65-19.83.8-7.06-1.99-13.73-8.29-17.48-.39-.23-.84-.73-1.28-.36-.41.34-.13.9-.02,1.37.46,1.94,1,3.86,1.31,5.82.33,2.08.4,4.2-1.51,6.23,0-.74-.04-1.04,0-1.34.66-4.03.43-7.93-1.56-11.62-2.39-4.42-7.57-6.54-11.82-4.47-.5.24-1.15.34-1,1.06.16.75.3,1.6,1.21,1.88.34.11.73.06,1.08.12,3.41.58,5.35,3.01,4.71,6.13-1.83,8.97-7.13,14.92-15.86,17.68-2.39.76-5.82-.46-5.73-4.2.04-1.7.03-3.39.46-5.06.44-1.74-.45-3.26-2.07-4.01-.58-.27-.79.04-.96.46-1.99,5.06-3.4,10.22-2.2,15.72.88,4.02,3.18,6.74,7.43,7.39,1.67.26,3.36.36,5.05.49,2.83.22,5.65.47,8.25,1.92-1.09,1.05-2.16.27-3.17.08Z"/>
        <path class="cls-5" d="m237.77,136.68c2.05-1.15,3.29-5.34,2.14-7.57-.63.85-1.25,1.64-1.8,2.48-.33.5-.54,1.08-.83,1.61-.48.88-.65,1.81-.61,2.8.03.86.31,1.12,1.1.67Z"/>
        <path class="cls-5" d="m174.76,97.95c-1.14-.02-1.6.95-2.09,1.79-.18.31-.31.65-.46.98-1.5,3.21-1.7,6.64-1.76,10.09-.12,1.83.08,3.63.54,5.39.4,1.5,1.21,1.89,2.51,1.07,1.27-.8,2.11-1.95,2.51-3.44.63-2.32,1.19-4.68,1.39-7.06.2-2.27.36-4.6-.58-6.8-.41-.95-.81-2.01-2.06-2.04Z"/>
        <path class="cls-5" d="m263.29,105.85c-.52-3.18-1.52-6.23-3.43-8.89-.5-.69-.96-1.32-1.98-.35-4,3.85-7.05,8.28-8.99,13.5-1.05,2.83-2.09,5.7-3.51,8.35-1.27,2.38-1.71,4.67-1.21,7.31,1.09,5.69.35,11.2-2.11,16.44-1.23,2.64-3,4.86-5.8,6.01-1.68.69-2.07.47-2.66-1.23-1.02-2.96-.64-5.94-.19-8.92.26-1.69.12-1.9-1.51-1.31-2.44.89-4.8.94-6.88-.67-1.57-1.22-2.84-2.77-3.74-4.62-2.45-5.05-3.55-10.52-4.95-15.88-2.7-10.24-5.29-20.5-10.4-29.89-4.19-7.69-9.91-13.8-18.26-16.91-4.05-1.51-8.18-2.6-12.73-2-6.48.86-11.42,4.14-15.54,8.81-3.67,4.17-6.27,9.08-8.14,14.29-3.22,8.99-4.91,18.29-4.91,27.87,0,6.45.93,12.75,2.89,18.91,2.05,6.44,6.46,10.7,12.12,14.06,4.75,2.82,9.85,4.63,15.06,6.25,6.44,2.01,13,3.36,19.77,2.87,4.65-.34,9.16-1.43,13.53-3.13,3.28-1.27,6.58-2.49,9.92-3.57,2.93-.95,6-1.56,9.06-1.68,2.26-.09,4.57.37,6.84.76,1.32.23,2.73.99,4.03.16,1.5-.95,3.19-1.53,4.64-2.49,2.66-1.76,5.6-2.43,8.66-2.97,1.34-.24,3.05.11,3.95-1.37.75-1.24,1.46-2.54,1.97-3.89,1.27-3.46,2.33-6.98,3.14-10.59,1.87-8.34,2.76-16.72,1.37-25.22Zm-80.43-2.14c-.34,10.44-2.22,20.52-6.81,29.99-.9,1.86-1.98,3.6-3.79,4.75-2.7,1.71-4.61,1.03-5.88-1.89-1.17-2.69-1.19-5.57-1.27-8.35-.17-5.61-.01-11.25,1.1-16.77,1.12-5.57,2.37-11.13,5.39-16.07,1.18-1.94,2.59-3.61,4.88-4.31,1.86-.57,3.25-.04,4.32,1.61,1.32,2.04,1.79,4.34,2.03,6.68.15,1.44.03,2.92.03,4.37Z"/>
        <path class="cls-5" d="m331.17,175.52c-3.57-.82-7.11.18-10.26,2.17-3.92,2.49-7.44,5.59-11.75,7.48-2.14.94-2.27,1.34-1.93,3.64.08.54.24,1.07.44,1.58,1.54,3.86,7.35,7.42,11.44,6.96,2.74-.31,5.26-1.22,7.5-2.9,1.12-.84,2.26-1.73,3.78-1.93-1.37,2.37-3.97,3.59-5.47,5.88,1.05.83,2.34.27,3.81.68-4.36.76-8.31.3-12.18-.57-5.31-1.2-10.07-3.32-11.72-9.25-.15-.53-.57-.76-1.11-.78-3.21-.15-6.16.34-8.32,3.07-.88,1.11-1.9,2.12-3.14,3.48.16-1.67.64-2.76,1.33-3.8,1.32-2,3.39-2.83,5.48-3.7,1.28-.53,2.75-.64,3.94-1.58-.87-.83-1.86-1-2.75-1.38-3.33-1.4-6.18-3.29-7.39-6.94-.51-.6-.79-1.27-.84-2.2.79.46.76,1.3,1.24,1.79.44.57.85,1.17,1.32,1.72,2.32,2.67,5.02,4.76,8.56,5.53,4.33.94,8.48-2.58,7.6-6.49-.41-1.81-.89-3.66-1.72-5.3-1.93-3.82-2.98-7.86-3.73-12.03-.29-1.63-.9-3.25-1.99-4.63-2.37-3.03-7.36-3.33-10.77-1.93-3.78,1.56-6.4,4.44-7.91,8.14-2.87,7.02-3.22,14.33-1.77,21.73.44,2.25,1.05,4.46,1.58,6.69-1.07-1.87-1.97-3.77-2.77-5.72-.45-1.09-.97-1.35-2.07-.8-2.63,1.32-4.18,3.48-4.9,6.22-.46,1.73-.61,3.55-.93,5.5-.33-.63-.25-1.72-1.27-.99-2.26,1.62-4.54,3.22-5.89,5.8-2.24,4.29-1.93,8.63-.28,12.98,1.37,3.59,3.67,6.53,6.5,9.1,5.34,4.84,12.68,7.25,20.08,3.58,1.94-.96,3.28-2.53,3.99-4.82-2.12.16-3.96.79-6.01.54.32-.61.76-.64,1.16-.72,2.14-.43,4.31-.72,6.4-1.3,2.74-.76,5.17-2.07,6.42-4.89.46-1.03.44-1.71-.77-2.21-1.74-.72-3.55-1.2-5.35-1.74-2.91-.88-5.92-1.61-7.86-4.31,1.67.78,3.28,1.65,4.99,2.34,2.2.88,4.37,1.78,6.75,2.01,6.16.6,12.16.19,18.09-1.88,5.51-1.92,10.18-4.86,13.99-9.29,4.01-4.68,5.1-10.05,3.84-15.9-.88-4.1-3.03-7.6-7.37-8.59Z"/>
        <path class="cls-5" d="m336.05,169.64c-5.9-3.71-11.95-3.77-18.05-.61-3.38,1.75-5.21,4.57-5.07,8.52.08,2.36.3,2.51,2.51,1.63,2.54-1.02,4.63-2.8,7.05-4.04,4.01-2.06,7.88-2.51,11.78.2,1.74,1.21,3.01,2.98,5,4.04,1.55-3.04-.66-8.13-3.21-9.73Z"/>
        <path class="cls-5" d="m343.46,132.95c-.95-5.5-6.6-7.18-10.77-6.29-3.92.83-7.17,2.91-10.19,5.6-4.19,3.73-7.44,8.09-9.91,13.05-2.07,4.16-3.51,8.59-4.3,13.18-.26,1.52-.32,3.1.49,4.66.79-.68,1.17-1.51,1.61-2.28.94-1.66,2.11-3.13,3.76-4.13,2.91-1.76,6.07-2.74,9.5-2.41,1.69.16,2.63-.48,3.13-2.02.76-2.35,2.33-4.12,4.23-5.58,3.02-2.31,6.13-4.49,9.14-6.81,2.25-1.74,3.84-3.92,3.32-6.96Z"/>
        <path class="cls-5" d="m328.6,156.46c-4.49-1.53-8.82-.86-12.94,1.36-1.88,1.01-3.55,2.34-4.9,3.99-2.03,2.46-1.59,7.79.73,10.07.48.47.76.13,1.05-.17.84-.88,1.76-1.65,2.74-2.37,4.61-3.33,9.64-4.98,15.36-3.76,1.35.29,2.67.69,4.14,1.07,0-.5,0-.86,0-1.21.03-3.84-2.56-7.76-6.18-8.99Z"/>
        <path class="cls-5" d="m258.3,400.68c-1.05-5.82-2.08-11.65-2.28-17.57-.29-8.42.08-16.79,2.47-24.97.97-3.33.8-3.36-2.75-3.4-1.49-.02-2.75.39-3.53,1.71-2.53,4.3-5.93,7.9-9.23,11.58-.82.91-1.42,1.91-1.66,3.17-.54,2.8-.83,5.61-.71,8.46-.13,3.76.46,7.48.65,11.22.36,6.96,1.6,13.78,3.02,20.58.45,2.16.57,2.16,2.68,1.69,3.89-.85,7.62-2.31,11.58-2.91,1.28-.19,1.26-1.1,1.09-2.06-.43-2.5-.87-5.01-1.32-7.51Z"/>
        <path class="cls-5" d="m196.15,379.11c3.21,2.74,7.16,3.76,11.29,3.71,4.33-.04,8.44-1.37,12.37-3.08,4.38-1.9,8.49-4.36,12.52-6.94,5.07-3.24,9.91-6.76,13.91-11.31,1.2-1.36,2.35-2.77,3.16-4.41,3.1-6.26.02-10.9-5.72-13.33-.86-.36-1.2.02-1.51.7-.51,1.12-.62,2.33-.89,3.51-.5,2.13-1.02,4.23-3.3,5.81.1-.66.12-1.03.21-1.37.97-3.48,2.08-6.93,2.66-10.52.64-3.96,1.13-7.93-.14-11.88-1.16-3.6-3.38-5.2-7.11-5.27-5.27-.09-10.25,1.41-15.3,2.56-.67.15-.72.52-.67,1.05.26,2.79.49,2.96,3.23,2.38.29-.06.58-.18.87-.21,1.62-.18,3.27-.44,4.84.18,2.22.87,2.47,2.09.89,3.84-1.16,1.28-2.54,2.28-4.02,3.09-5.37,2.91-10.98,5.32-16.63,7.65-2.2.91-4.54,1.25-6.94,1.07-1.2-.09-1.72-.56-1.67-1.82.06-1.48.81-2.56,1.88-3.37.94-.7,1.7-1.56,2.53-2.35.67-.64.62-2.75-.1-3.66-.71-.89-1.46-.12-2.1.15-2.45,1.03-4.89,2.1-7.29,3.26-2.42,1.17-4.52,2.79-6.35,4.78-2.56,2.78-2.38,8.32.9,11.55,2.54,2.51,5.55,4.51,7.79,7.34.46.58.93,1.09.62,1.91-2-1.39-2.11-1.33-2.99.88-1.06,2.67-1.01,5.32-.41,8.1.52,2.44,1.67,4.45,3.46,5.98Z"/>
        <path class="cls-5" d="m158.24,423.68c-1.53-7.92-3.9-15.59-7.09-22.99-3.11-7.23-8.36-12.5-15.56-15.77-3.32-1.51-6.72-2.68-9.26-2.81-4.33,0-6.65,1-8.29,2.89-.75.86-.49,1.16.43,1.46,1.09.35,2.18.66,3.31.87,5.49,1.01,9.53,4.24,12.89,8.48,2.93,3.7,4.87,7.9,6.45,12.32,1.85,5.15,2.95,10.47,3.32,15.89.28,4.05.81,8.08.8,12.15,0,1.08.48,1.52,1.59,1.12,4.05-1.44,8.02-3.05,11.81-5.09.81-.44,1.11-.87.97-1.82-.33-2.27-.94-4.47-1.38-6.71Z"/>
        <path class="cls-5" d="m183.35,348.08c.33-1.47-.12-2.75-1.3-3.76-3.22-2.75-6.83-4.75-10.98-5.73-2.46-.58-2.62-.46-3.09,1.9-.23,1.14.14,1.73,1.26,1.96.95.19,1.89.4,2.81.69,1.69.52,3.1,2.11,3.09,3.64-.01,1.64-1.15,2.58-2.46,3.32-.25.14-.58.15-.86.25-3.94,1.34-8,1.77-12.14,1.85-5.43.1-10.78-.35-15.98-1.94-2.94-.9-5.52-2.46-7.09-5.28-.51-.9-.43-1.62.32-2.44,1.05-1.16,2.4-1.57,3.81-1.92,2.54-.62,5.18-.34,7.74-.82.57-.11,1.4.12,1.49-.69.14-1.2.59-2.38.4-3.6-.05-.3-.5-.23-.81-.18-2.41.37-4.84.21-7.27.38-3.82.27-7.54.84-11.18,1.98-6.07,1.9-9.08,7.69-6.52,14.03.84,2.08,1.79,4.11,2.88,6.08.7,1.27,1.31,2.58,1.5,4.31-1.16-.67-1.49-1.66-2.19-2.33-.67-.63-1.06-.83-1.58.2-.76,1.51-1.57,3.12-2.95,4.11-2.77,1.97-2.96,7.77-.82,10.53,1.67,2.15,3.61,4.08,5.98,5.46,7.25,4.24,15.23,6,23.5,6.51,3.26.2,6.55.22,9.81-.31,3.64-.6,7.31-1.13,10.56-3.04,7.04-4.14,9.23-9.3,7.63-16.37-.39-1.75-.91-1.83-2.26-.59-.7.64-1.23,1.58-2.61,1.86.86-1.78,1.55-3.23,2.74-4.42,1.63-1.62,3.53-2.96,4.88-4.87,1.61-2.27,3.39-4.41,1.88-7.53-.44-.92-.43-2.1-.18-3.23Z"/>
      </g>
    </g>
  </g>
</svg>