<svg xmlns="http://www.w3.org/2000/svg" viewBox="0 0 400 300">
  <defs>
    <linearGradient id="bg" x1="0%" y1="0%" x2="0%" y2="100%">
      <stop offset="0%" style="stop-color:#1B5E20"/>
      <stop offset="100%" style="stop-color:#2E7D32"/>
    </linearGradient>
  </defs>
  <rect width="400" height="300" fill="url(#bg)"/>
  <!-- Graduation cap -->
  <polygon points="200,60 120,100 200,140 280,100" fill="#333" stroke="#FFD700" stroke-width="2"/>
  <rect x="195" y="60" width="10" height="10" fill="#FFD700"/>
  <line x1="280" y1="100" x2="280" y2="150" stroke="#FFD700" stroke-width="2"/>
  <circle cx="280" cy="155" r="5" fill="#FFD700"/>
  <path d="M140,110 L140,155 Q200,185 260,155 L260,110" fill="none" stroke="#FFD700" stroke-width="2"/>
  <!-- Book -->
  <rect x="140" y="180" width="120" height="80" rx="4" fill="#FFF9C4" stroke="#F9A825" stroke-width="2"/>
  <rect x="140" y="180" width="60" height="80" fill="#FFF176"/>
  <line x1="200" y1="180" x2="200" y2="260" stroke="#F9A825" stroke-width="2"/>
  <!-- Lines on book -->
  <line x1="152" y1="200" x2="190" y2="200" stroke="#999" stroke-width="1.5"/>
  <line x1="152" y1="212" x2="185" y2="212" stroke="#999" stroke-width="1.5"/>
  <line x1="152" y1="224" x2="188" y2="224" stroke="#999" stroke-width="1.5"/>
  <line x1="208" y1="200" x2="248" y2="200" stroke="#999" stroke-width="1.5"/>
  <line x1="208" y1="212" x2="243" y2="212" stroke="#999" stroke-width="1.5"/>
  <!-- Lightbulb -->
  <circle cx="330" cy="200" r="20" fill="#FFD700" opacity="0.3"/>
  <circle cx="330" cy="200" r="12" fill="#FFD700" opacity="0.6"/>
  <text x="330" y="206" text-anchor="middle" font-size="16" fill="#1B5E20">💡</text>
  <!-- ABC -->
  <text x="80" y="220" font-family="monospace" font-size="22" font-weight="bold" fill="#FFF176" opacity="0.5">A+</text>
</svg>
